<?xml version="1.0" encoding="UTF-8"?>
<svg width="278px" height="54px" viewBox="0 0 278 54" version="1.1" xmlns="http://www.w3.org/2000/svg" xmlns:xlink="http://www.w3.org/1999/xlink">
    <!-- Generator: Sketch 48.1 (47250) - http://www.bohemiancoding.com/sketch -->
    <title>Logo</title>
    <desc>Created with Sketch.</desc>
    <defs>
        <polygon id="path-1" points="18.6455742 20.46965 0.637924728 20.46965 0.637924728 0.120770935 18.6455742 0.120770935"></polygon>
        <polygon id="path-3" points="0.0521918478 20.46965 16.7448114 20.46965 16.7448114 0.120917147 0.0521918478 0.120917147 0.0521918478 20.46965"></polygon>
        <polygon id="path-5" points="18.6726935 20.46965 0.664313043 20.46965 0.664313043 0.120770935 18.6726935 0.120770935"></polygon>
    </defs>
    <g id="Page-1" stroke="none" stroke-width="1" fill="none" fill-rule="evenodd">
        <g id="Logo">
            <path d="M89.8477543,8.85063802 C94.2862543,19.8508817 77.9342707,36.8202215 53.3236946,46.7531192 C28.7138495,56.6852858 5.16538478,55.8204431 0.726884783,44.8201994 C-3.71161522,33.8199557 12.6403685,16.8513469 37.2502136,6.91844927 C61.8607897,-3.01371732 85.4092543,-2.14887461 89.8477543,8.85063802" id="Fill-1" fill="#02223A"></path>
            <path d="M59.8473101,42.2330549 L63.8676905,36.750113 C63.8676905,36.750113 27.1967041,38.9937328 27.8063399,25.4691427 C28.3107149,14.2634714 43.7321633,15.0069584 49.3387666,15.5662184 C50.4966361,15.6817257 50.9308372,15.8630284 51.4052421,16.4208263 L54.9950764,21.4592844 C55.3247476,21.9534803 56.0791171,21.8423593 56.2530899,21.2757887 L58.4796497,12.7794218 C58.537397,12.5615662 58.5169296,12.3305516 58.4233644,12.1258551 L56.8298318,8.64016615 C56.6953318,8.3455494 56.4285247,8.13719761 56.1098182,8.08383031 C52.5477611,7.48728622 29.9473753,4.49798626 21.5316226,26.6373748 C13.1253726,48.7519074 59.8473101,42.2330549 59.8473101,42.2330549" id="Fill-3" fill="#FFFFFF"></path>
            <path d="M116.270621,27.013323 C115.334969,27.4812007 113.464396,27.9490784 111.066787,27.9490784 C105.512083,27.9490784 101.331618,24.4399956 101.331618,17.9788968 C101.331618,11.8094905 105.512083,7.62856447 111.62233,7.62856447 C114.077686,7.62856447 115.62736,8.15492689 116.29986,8.50583518 L115.685839,10.5813115 C114.720947,10.1141648 113.346708,9.76252548 111.710048,9.76252548 C107.090996,9.76252548 104.021618,12.7160035 104.021618,17.8904386 C104.021618,22.7154276 106.798605,25.8143864 111.593091,25.8143864 C113.142765,25.8143864 114.720947,25.4927204 115.744317,24.9956004 L116.270621,27.013323 Z" id="Fill-5" fill="#02223A"></path>
            <g id="Group-9" transform="translate(119.377717, 7.508159)">
                <mask id="mask-2" fill="white">
                    <use xlink:href="#path-1"></use>
                </mask>
                <g id="Clip-8"></g>
                <path d="M3.35643288,10.4118875 C3.35643288,14.6227869 5.63708505,18.3943199 9.64211495,18.3943199 C13.676384,18.3943199 15.9563052,14.6812716 15.9563052,10.207922 C15.9563052,6.28944617 13.910297,2.19697829 9.67135408,2.19697829 C5.46091929,2.19697829 3.35643288,6.08474967 3.35643288,10.4118875 M18.6455742,10.0909526 C18.6455742,16.8737173 14.5235878,20.4697962 9.49518832,20.4697962 C4.29208505,20.4697962 0.637924728,16.435082 0.637924728,10.4703722 C0.637924728,4.21323881 4.5259981,0.120770935 9.78757962,0.120770935 C15.1668486,0.120770935 18.6455742,4.24321223 18.6455742,10.0909526" id="Fill-7" fill="#02223A" mask="url(#mask-2)"></path>
            </g>
            <path d="M145.71501,27.6565086 L140.71585,7.95008418 L143.40585,7.95008418 L145.744249,17.9202658 C146.329032,20.3758928 146.855336,22.8315197 147.206206,24.7322729 L147.264684,24.7322729 C147.586315,22.7737661 148.199605,20.4343775 148.872105,17.8910235 L151.503627,7.95008418 L154.164388,7.95008418 L156.561266,17.9495082 C157.116809,20.2888968 157.642383,22.6275543 157.935505,24.7030306 L157.993983,24.7030306 C158.4026,22.5398272 158.958143,20.3466504 159.572165,17.8910235 L162.174448,7.95008418 L164.775999,7.95008418 L159.192057,27.6565086 L156.532027,27.6565086 L154.046701,17.3939034 C153.43341,14.8790607 153.024062,12.9497962 152.76091,10.962047 L152.702432,10.962047 C152.351562,12.9205538 151.912975,14.8498183 151.181997,17.3939034 L148.375771,27.6565086 L145.71501,27.6565086 Z" id="Fill-10" fill="#02223A"></path>
            <path d="M176.386785,19.4699646 L174.457002,13.7976783 C174.019146,12.5110146 173.726024,11.3420514 173.434364,10.2015995 L173.375886,10.2015995 C173.082763,11.3712938 172.761864,12.5702304 172.381755,13.768436 L170.451973,19.4699646 L176.386785,19.4699646 Z M169.925668,21.4584448 L167.87966,27.6563624 L165.248869,27.6563624 L171.943168,7.94993797 L175.012546,7.94993797 L181.736084,27.6563624 L179.018307,27.6563624 L176.913089,21.4584448 L169.925668,21.4584448 Z" id="Fill-12" fill="#02223A"></path>
            <path d="M185.217807,27.6565086 L185.217807,7.95008418 L187.995524,7.95008418 L194.309714,17.9202658 C195.771671,20.2304121 196.911997,22.3058883 197.846918,24.3228799 L197.905396,24.2936376 C197.671483,21.6625565 197.613736,19.2646832 197.613736,16.1949668 L197.613736,7.95008418 L200.010614,7.95008418 L200.010614,27.6565086 L197.438301,27.6565086 L191.181858,17.6570846 C189.807619,15.4639078 188.491858,13.2129774 187.498459,11.0782853 L187.410741,11.1075277 C187.556937,13.593128 187.615415,15.961759 187.615415,19.2354409 L187.615415,27.6565086 L185.217807,27.6565086 Z" id="Fill-14" fill="#02223A"></path>
            <g id="Group-18" transform="translate(215.135870, 7.508159)">
                <mask id="mask-4" fill="white">
                    <use xlink:href="#path-3"></use>
                </mask>
                <g id="Clip-17"></g>
                <path d="M4.61203424,4.73974745 C4.61203424,6.14338059 5.25529511,7.22461675 6.10322989,8.27807266 C8.09149076,7.13762074 9.3780125,6.08489588 9.3780125,4.41881258 C9.3780125,3.21987594 8.7055125,1.87472751 7.09662935,1.87472751 C5.45996902,1.87472751 4.61203424,3.21987594 4.61203424,4.73974745 L4.61203424,4.73974745 Z M10.605325,16.756163 C9.43575978,15.4702304 7.24355598,13.0723571 5.05135217,10.5582455 C3.9980125,11.2308197 2.50754783,12.488241 2.50754783,14.5637173 C2.50754783,16.8153788 4.17344728,18.5406779 6.54181685,18.5406779 C8.23695543,18.5406779 9.66967283,17.7803766 10.605325,16.756163 L10.605325,16.756163 Z M13.7039418,20.1482765 C13.1491293,19.5926717 12.622094,19.037798 11.8626076,18.2182809 C10.166738,19.7980992 8.26619457,20.4699424 6.10322989,20.4699424 C2.27363478,20.4699424 0.0521918478,17.897346 0.0521918478,14.943868 C0.0521918478,12.2535711 1.65961304,10.4120337 3.91029511,9.18385467 L3.91029511,9.0961276 C2.88765652,7.81019495 2.27363478,6.37731945 2.27363478,4.97368631 C2.27363478,2.57654409 3.9980125,0.120917147 7.27279511,0.120917147 C9.72815109,0.120917147 11.6286946,1.75775809 11.6286946,4.3011121 C11.6286946,6.37731945 10.4298902,8.01416039 7.30203424,9.56473638 L7.30203424,9.65246345 C8.9679337,11.5809969 10.839238,13.7449313 12.0957897,15.1485645 C13.0029337,13.7741737 13.6162245,11.8741515 13.9963332,9.38855117 L16.3347326,9.38855117 C15.8084283,12.488241 14.9612245,14.943868 13.4992679,16.668436 C14.5518766,17.7803766 15.5752462,18.8908551 16.7448114,20.1482765 L13.7039418,20.1482765 Z" id="Fill-16" fill="#02223A" mask="url(#mask-4)"></path>
            </g>
            <path d="M257.084227,27.013323 C256.149305,27.4812007 254.278001,27.9490784 251.881123,27.9490784 C246.32642,27.9490784 242.145224,24.4399956 242.145224,17.9788968 C242.145224,11.8094905 246.32642,7.62856447 252.436667,7.62856447 C254.892023,7.62856447 256.440966,8.15492689 257.113466,8.50583518 L256.499444,10.5813115 C255.535284,10.1141648 254.161045,9.76252548 252.524384,9.76252548 C247.904602,9.76252548 244.835224,12.7160035 244.835224,17.8904386 C244.835224,22.7154276 247.612941,25.8143864 252.407428,25.8143864 C253.956371,25.8143864 255.535284,25.4927204 256.557922,24.9956004 L257.084227,27.013323 Z" id="Fill-19" fill="#02223A"></path>
            <g id="Group-23" transform="translate(258.994565, 7.508159)">
                <mask id="mask-6" fill="white">
                    <use xlink:href="#path-5"></use>
                </mask>
                <g id="Clip-22"></g>
                <path d="M3.38355217,10.4118875 C3.38355217,14.6227869 5.66347337,18.3943199 9.66923424,18.3943199 C13.7027723,18.3943199 15.9834245,14.6812716 15.9834245,10.207922 C15.9834245,6.28944617 13.9374163,2.19697829 9.69847337,2.19697829 C5.48876957,2.19697829 3.38355217,6.08474967 3.38355217,10.4118875 M18.6726935,10.0909526 C18.6726935,16.8737173 14.5507071,20.4697962 9.52230761,20.4697962 C4.31847337,20.4697962 0.664313043,16.435082 0.664313043,10.4703722 C0.664313043,4.21323881 4.55311739,0.120770935 9.81542989,0.120770935 C15.1939679,0.120770935 18.6726935,4.24321223 18.6726935,10.0909526" id="Fill-21" fill="#02223A" mask="url(#mask-6)"></path>
            </g>
        </g>
    </g>
</svg>