<svg width="278" height="54" viewBox="0 0 278 54" xmlns="http://www.w3.org/2000/svg" xmlns:xlink="http://www.w3.org/1999/xlink"><title>Logo</title><defs><path id="a" d="M18.646 20.47H.638V.12h18.008z"/><path id="c" d="M.052 20.47h16.693V.12H.052v20.35z"/><path id="e" d="M18.673 20.47H.664V.12h18.009z"/></defs><g fill="none" fill-rule="evenodd"><path d="M89.848 8.85c4.438 11-11.914 27.97-36.524 37.903C28.714 56.685 5.165 55.82.727 44.82c-4.439-11 11.913-27.969 36.523-37.902 24.61-9.932 48.16-9.067 52.598 1.933" fill="#FFF"/><path d="M59.847 42.233l4.02-5.483s-36.67 2.244-36.06-11.28c.504-11.207 15.925-10.463 21.532-9.904 1.158.116 1.592.297 2.066.855l3.59 5.038a.704.704 0 0 0 1.258-.183l2.227-8.497a.973.973 0 0 0-.057-.653L56.83 8.64a.966.966 0 0 0-.72-.556c-3.562-.597-26.163-3.586-34.578 18.553-8.407 22.115 38.315 15.596 38.315 15.596" fill="#02223A"/><path d="M116.27 27.013c-.935.468-2.806.936-5.203.936-5.555 0-9.735-3.509-9.735-9.97 0-6.17 4.18-10.35 10.29-10.35 2.456 0 4.005.526 4.678.877l-.614 2.075c-.965-.467-2.34-.818-3.976-.818-4.619 0-7.688 2.953-7.688 8.127 0 4.825 2.777 7.924 7.571 7.924 1.55 0 3.128-.321 4.151-.818l.527 2.017z" fill="#FFF"/><g transform="translate(119.378 7.508)"><mask id="b" fill="#fff"><use xlink:href="#a"/></mask><path d="M3.356 10.412c0 4.21 2.281 7.982 6.286 7.982 4.034 0 6.314-3.713 6.314-8.186 0-3.919-2.046-8.011-6.285-8.011-4.21 0-6.315 3.888-6.315 8.215m15.29-.321c0 6.783-4.122 10.379-9.15 10.379-5.204 0-8.858-4.035-8.858-10C.638 4.213 4.526.12 9.788.12c5.379 0 8.858 4.123 8.858 9.971" fill="#FFF" mask="url(#b)"/></g><path d="M145.715 27.657l-5-19.707h2.69l2.34 9.97a143.553 143.553 0 0 1 1.461 6.812h.059c.321-1.958.935-4.298 1.607-6.841l2.632-9.94h2.66l2.397 9.999c.556 2.339 1.081 4.678 1.375 6.753h.058c.409-2.163.964-4.356 1.578-6.812l2.602-9.94h2.602l-5.584 19.706h-2.66l-2.485-10.263c-.614-2.515-1.023-4.444-1.286-6.432h-.059c-.35 1.959-.789 3.888-1.52 6.432l-2.806 10.263h-2.661zm30.672-8.187l-1.93-5.672c-.438-1.287-.731-2.456-1.023-3.596h-.058a60.034 60.034 0 0 1-.994 3.566l-1.93 5.702h5.935zm-6.461 1.988l-2.046 6.198h-2.631l6.694-19.706h3.07l6.723 19.706h-2.718l-2.105-6.198h-6.987zm15.292 6.199V7.95h2.778l6.314 9.97c1.462 2.31 2.602 4.386 3.537 6.403l.058-.03c-.234-2.63-.291-5.028-.291-8.098V7.95h2.397v19.707h-2.573l-6.256-10c-1.374-2.193-2.69-4.444-3.684-6.579l-.087.03c.146 2.485.204 4.854.204 8.127v8.422h-2.397z" fill="#FFF"/><g transform="translate(215.136 7.508)"><mask id="d" fill="#fff"><use xlink:href="#c"/></mask><path d="M4.612 4.74c0 1.403.643 2.485 1.491 3.538 1.988-1.14 3.275-2.193 3.275-3.86 0-1.198-.672-2.543-2.281-2.543-1.637 0-2.485 1.345-2.485 2.865zm5.993 12.016c-1.17-1.286-3.361-3.684-5.554-6.198-1.053.673-2.543 1.93-2.543 4.006 0 2.251 1.665 3.977 4.034 3.977 1.695 0 3.128-.76 4.063-1.785zm3.099 3.392a68.976 68.976 0 0 1-1.841-1.93c-1.696 1.58-3.597 2.252-5.76 2.252-3.83 0-6.05-2.573-6.05-5.526 0-2.69 1.607-4.532 3.857-5.76v-.088C2.888 7.81 2.274 6.377 2.274 4.974 2.274 2.577 3.998.12 7.273.12c2.455 0 4.356 1.637 4.356 4.18 0 2.076-1.2 3.713-4.327 5.264v.087c1.666 1.929 3.537 4.093 4.794 5.497.907-1.375 1.52-3.275 1.9-5.76h2.339c-.527 3.1-1.374 5.555-2.836 7.28 1.053 1.111 2.076 2.222 3.246 3.48h-3.041z" fill="#FFF" mask="url(#d)"/></g><path d="M257.084 27.013c-.935.468-2.806.936-5.203.936-5.555 0-9.736-3.509-9.736-9.97 0-6.17 4.181-10.35 10.292-10.35 2.455 0 4.004.526 4.676.877l-.614 2.075c-.964-.467-2.338-.818-3.975-.818-4.62 0-7.689 2.953-7.689 8.127 0 4.825 2.778 7.924 7.572 7.924 1.55 0 3.128-.321 4.15-.818l.527 2.017z" fill="#FFF"/><g transform="translate(258.995 7.508)"><mask id="f" fill="#fff"><use xlink:href="#e"/></mask><path d="M3.384 10.412c0 4.21 2.28 7.982 6.285 7.982 4.034 0 6.314-3.713 6.314-8.186 0-3.919-2.046-8.011-6.285-8.011-4.21 0-6.314 3.888-6.314 8.215m15.289-.321c0 6.783-4.122 10.379-9.15 10.379-5.205 0-8.859-4.035-8.859-10C.664 4.213 4.554.12 9.815.12c5.379 0 8.858 4.123 8.858 9.971" fill="#FFF" mask="url(#f)"/></g></g></svg>