<svg width="215" height="44" viewBox="0 0 215 44" xmlns="http://www.w3.org/2000/svg" xmlns:xlink="http://www.w3.org/1999/xlink"><title>Logo</title><defs><path id="a" d="M14.903 16.376H.51V.096h14.393z"/><path id="c" d="M.042 16.376h13.341V.096H.042v16.28z"/><path id="e" d="M14.924 16.376H.531V.096h14.393z"/></defs><g fill="none" fill-rule="evenodd"><path d="M71.811 7.08c3.548 8.8-9.522 22.376-29.192 30.322C22.95 45.348 4.13 44.656.581 35.856c-3.548-8.8 9.522-22.375 29.191-30.321 19.67-7.946 38.492-7.254 42.04 1.546" fill="#02223A"/><path d="M47.833 33.786l3.214-4.386s-29.31 1.795-28.823-9.025c.404-8.964 12.73-8.37 17.21-7.922.926.092 1.273.237 1.652.684l2.87 4.03a.562.562 0 0 0 1.005-.146l1.78-6.797a.779.779 0 0 0-.046-.523l-1.273-2.789a.772.772 0 0 0-.576-.445C42 5.99 23.936 3.598 17.21 21.31c-6.718 17.692 30.624 12.476 30.624 12.476" fill="#FFF"/><path d="M85.737 42.41c-.748.375-2.243.75-4.16.75-4.44 0-7.78-2.808-7.78-7.977 0-4.935 3.34-8.28 8.225-8.28 1.962 0 3.2.42 3.738.702l-.49 1.66c-.772-.374-1.87-.655-3.178-.655-3.692 0-6.145 2.363-6.145 6.502 0 3.86 2.22 6.34 6.051 6.34 1.239 0 2.5-.258 3.318-.656l.42 1.615z" fill="#02223A"/><g transform="translate(88.22 26.807)"><mask id="b" fill="#fff"><use xlink:href="#a"/></mask><path d="M2.683 8.33c0 3.368 1.822 6.385 5.024 6.385 3.224 0 5.046-2.97 5.046-6.549 0-3.134-1.635-6.408-5.023-6.408-3.365 0-5.047 3.11-5.047 6.572m12.22-.257c0 5.426-3.295 8.303-7.314 8.303-4.159 0-7.08-3.228-7.08-8 0-5.005 3.108-8.28 7.314-8.28 4.3 0 7.08 3.299 7.08 7.977" fill="#02223A" mask="url(#b)"/></g><path d="M109.27 42.925l-3.995-15.765h2.15l1.869 7.976c.467 1.965.888 3.93 1.168 5.45h.047c.257-1.567.747-3.438 1.285-5.473l2.103-7.953h2.127l1.915 8c.444 1.871.864 3.742 1.099 5.402h.046c.327-1.73.771-3.485 1.262-5.45l2.08-7.952h2.079l-4.463 15.765h-2.126l-1.986-8.21c-.49-2.012-.818-3.555-1.028-5.145h-.047c-.28 1.566-.63 3.11-1.215 5.145l-2.243 8.21h-2.127zm24.515-6.549l-1.542-4.538c-.35-1.03-.585-1.964-.818-2.877h-.047c-.234.936-.49 1.895-.794 2.854l-1.542 4.561h4.743zm-5.164 1.59l-1.635 4.96h-2.103l5.35-15.766h2.454l5.373 15.765h-2.172l-1.682-4.958h-5.585zm12.222 4.959V27.16h2.22l5.047 7.976c1.168 1.848 2.08 3.509 2.827 5.122l.047-.023c-.187-2.105-.233-4.023-.233-6.479V27.16h1.915v15.765h-2.055l-5.001-8c-1.098-1.754-2.15-3.555-2.944-5.262l-.07.023c.117 1.989.164 3.883.164 6.502v6.737h-1.917z" fill="#02223A"/><g transform="translate(164.755 26.807)"><mask id="d" fill="#fff"><use xlink:href="#c"/></mask><path d="M3.686 3.792c0 1.123.514 1.988 1.192 2.83 1.59-.912 2.617-1.754 2.617-3.087 0-.96-.537-2.035-1.823-2.035-1.308 0-1.986 1.076-1.986 2.292zm4.79 9.613c-.934-1.029-2.687-2.947-4.439-4.958-.842.538-2.033 1.544-2.033 3.204 0 1.801 1.332 3.182 3.225 3.182 1.354 0 2.5-.609 3.247-1.428zm2.477 2.714a55.159 55.159 0 0 1-1.472-1.544c-1.355 1.263-2.874 1.801-4.603 1.801-3.06 0-4.836-2.058-4.836-4.42 0-2.153 1.284-3.626 3.083-4.609v-.07c-.817-1.029-1.308-2.175-1.308-3.298C1.817 2.06 3.195.097 5.813.097c1.962 0 3.481 1.31 3.481 3.344 0 1.66-.958 2.97-3.458 4.21v.071a386.327 386.327 0 0 0 3.832 4.397c.725-1.1 1.215-2.62 1.519-4.608h1.869c-.421 2.48-1.098 4.444-2.267 5.824.842.89 1.66 1.778 2.594 2.784h-2.43z" fill="#02223A" mask="url(#d)"/></g><path d="M198.283 42.41c-.747.375-2.243.75-4.159.75-4.44 0-7.781-2.808-7.781-7.977 0-4.935 3.342-8.28 8.225-8.28 1.963 0 3.2.42 3.738.702l-.49 1.66c-.771-.374-1.87-.655-3.178-.655-3.692 0-6.145 2.363-6.145 6.502 0 3.86 2.22 6.34 6.052 6.34 1.238 0 2.5-.258 3.317-.656l.42 1.615z" fill="#02223A"/><g transform="translate(199.81 26.807)"><mask id="f" fill="#fff"><use xlink:href="#e"/></mask><path d="M2.704 8.33c0 3.368 1.823 6.385 5.024 6.385 3.224 0 5.047-2.97 5.047-6.549 0-3.134-1.635-6.408-5.023-6.408-3.365 0-5.048 3.11-5.048 6.572m12.22-.257c0 5.426-3.294 8.303-7.313 8.303-4.16 0-7.08-3.228-7.08-8 0-5.005 3.108-8.28 7.314-8.28 4.299 0 7.08 3.299 7.08 7.977" fill="#02223A" mask="url(#f)"/></g></g></svg>