<svg width="62" height="62" viewBox="0 0 62 62" xmlns="http://www.w3.org/2000/svg" xmlns:xlink="http://www.w3.org/1999/xlink"><title>Group 4 Copy</title><defs><path id="a" d="M26.654 0H0v19.546h26.654V0z"/></defs><g transform="translate(1 1)" fill="none" fill-rule="evenodd"><circle stroke="#A73C12" stroke-width="2" cx="30" cy="30" r="30"/><g transform="translate(17.673 21.227)"><mask id="b" fill="#fff"><use xlink:href="#a"/></mask><path d="M19.833 10.94l5.636 6.163v.666a.578.578 0 0 1-.592.593h-5.95l-2.962-3.313 3.868-4.11zM8.58 8.58l8.755 9.782H1.777a.579.579 0 0 1-.592-.593V16.52l7.394-7.94zm6.82-3.843c.661 0 1.185.524 1.185 1.185S16.06 7.108 15.4 7.108a1.176 1.176 0 0 1-1.185-1.185c0-.661.524-1.185 1.185-1.185zm0-1.184a2.378 2.378 0 0 0-2.37 2.37 2.378 2.378 0 0 0 2.37 2.368 2.378 2.378 0 0 0 2.37-2.369 2.378 2.378 0 0 0-2.37-2.37zM1.777 1.184h23.1c.339 0 .592.254.592.593v13.568l-5.191-5.683a.6.6 0 0 0-.87 0l-4.24 4.498-6.135-6.858a.604.604 0 0 0-.537-.194.599.599 0 0 0-.343.185L1.185 14.78V1.777c0-.339.254-.592.592-.592zm0-1.184C.803 0 0 .803 0 1.777v15.992c0 .975.803 1.777 1.777 1.777h23.1c.974 0 1.777-.802 1.777-1.777V1.777C26.654.803 25.851 0 24.877 0h-23.1z" fill="#FFF" mask="url(#b)"/></g></g></svg>