<svg width="62" height="62" viewBox="0 0 62 62" xmlns="http://www.w3.org/2000/svg"><title>Group 12</title><g fill="none" fill-rule="evenodd"><circle cx="30" cy="30" r="30" stroke="#A73C12" stroke-width="2" transform="translate(1 1)"/><path d="M32.883 18.742c2.216 0 4.431.466 6.647 1.397l-1.585 3.92c-1.784-.727-3.329-1.09-4.636-1.09-.886 0-1.568.252-2.045.758-.477.505-.716 1.23-.716 2.173v3.289h6.391v3.732h-6.39v2.437c0 1.932-.858 3.34-2.574 4.227h12.237v4.431H22.35V39.79c1.17-.5 1.974-1.074 2.411-1.722.438-.647.657-1.54.657-2.676v-2.47h-3.034v-3.733h3.034v-3.323c0-2.284.65-4.042 1.95-5.275 1.302-1.233 3.14-1.85 5.514-1.85z" stroke="#FFF"/></g></svg>