<svg width="97" height="97" viewBox="0 0 97 97" xmlns="http://www.w3.org/2000/svg" xmlns:xlink="http://www.w3.org/1999/xlink"><title>Group</title><defs><path id="a" d="M41.326 0H0v41.326h41.326V0z"/></defs><g transform="translate(1 1)" fill="none" fill-rule="evenodd"><circle stroke="#FFF" stroke-width="2" cx="47.5" cy="47.5" r="47.5"/><g transform="translate(27.213 29.213)"><mask id="b" fill="#fff"><use xlink:href="#a"/></mask><path d="M28.598 26.157l9.926 9.947c.692.692.692 1.728 0 2.42a1.694 1.694 0 0 1-2.44 0l-9.926-9.926a17.24 17.24 0 0 0 2.44-2.44m-12.53-23.86a13.74 13.74 0 0 1 13.77 13.77 13.74 13.74 0 0 1-13.77 13.771 13.742 13.742 0 0 1-13.77-13.77c0-7.628 6.143-13.77 13.77-13.77m0-2.3C7.202 0 0 7.202 0 16.07s7.2 16.068 16.069 16.068c2.99 0 5.776-.792 8.156-2.217l10.252 10.232c1.566 1.566 4.13 1.566 5.675 0 1.566-1.546 1.566-4.11 0-5.675L29.92 24.225c1.423-2.38 2.216-5.166 2.216-8.156 0-8.868-7.2-16.07-16.068-16.07" fill="#FFF" mask="url(#b)"/></g></g></svg>