<svg width="97" height="97" viewBox="0 0 97 97" xmlns="http://www.w3.org/2000/svg" xmlns:xlink="http://www.w3.org/1999/xlink"><title>Group 15</title><defs><path id="a" d="M0 37.548h37.942V0H0z"/></defs><g transform="translate(1 1)" fill="none" fill-rule="evenodd"><circle stroke="#FFF" stroke-width="2" cx="47.5" cy="47.5" r="47.5"/><g transform="translate(28.41 30.223)"><mask id="b" fill="#fff"><use xlink:href="#a"/></mask><path d="M15.828 35.224c-.421 0-.762.519-.762 1.158 0 .64.34 1.159.762 1.159h21.351c.421 0 .763-.52.763-1.159 0-.64-.342-1.158-.763-1.158H15.828zM2.956 30.807l3.801 3.802-4.271.47.47-4.272zM26.559 6.082l4.906 4.905L8.947 33.522l-4.905-4.905L26.56 6.082zm3.277-3.277l4.905 4.906-1.63 1.647-4.905-4.905 1.63-1.648zM29.817 0c-.036.004-.072.01-.108.018a1.16 1.16 0 0 0-.688.326L1.165 28.2a1.156 1.156 0 0 0-.327.687l-.832 7.385a1.158 1.158 0 0 0 1.285 1.268l7.367-.815c.266-.024.515-.139.706-.326L37.202 8.543c.455-.45.459-1.183.01-1.638l-.01-.008L30.65.344A1.16 1.16 0 0 0 29.817 0z" fill="#FFF" mask="url(#b)"/></g></g></svg>