<svg width="97" height="97" viewBox="0 0 97 97" xmlns="http://www.w3.org/2000/svg" xmlns:xlink="http://www.w3.org/1999/xlink"><title>Group 16</title><defs><path id="a" d="M45.955 40.984H0V.116h45.955z"/></defs><g transform="translate(1 1)" fill="none" fill-rule="evenodd"><circle stroke="#FFF" stroke-width="2" cx="47.5" cy="47.5" r="47.5"/><g transform="translate(24.917 27.627)"><mask id="b" fill="#fff"><use xlink:href="#a"/></mask><path d="M43.234 28.337L10.932 38.602a.504.504 0 0 1-.631-.325L2.39 13.394a.504.504 0 0 1 .33-.63l32.307-10.27a.512.512 0 0 1 .382.033c.12.06.21.168.25.296l7.904 24.883a.504.504 0 0 1-.33.631zm-7.575 9.94a.504.504 0 0 1-.631.325l-8.16-2.591 10.581-3.363-1.79 5.63zm-32.938-9.94a.504.504 0 0 1-.325-.631l1.036-3.265 1.456 4.59-2.167-.694zm7.58-25.514a.504.504 0 0 1 .631-.325l8.16 2.591L8.51 8.453l1.79-5.63zm32.933 9.94a.504.504 0 0 1 .325.631l-1.036 3.265-1.456-4.588 2.167.692zm.528 7.787l2.049-6.44a2.86 2.86 0 0 0-1.856-3.59l-3.769-1.19-2.284-7.217a2.86 2.86 0 0 0-3.59-1.856L22.978 3.855 11.643.251a2.86 2.86 0 0 0-3.59 1.856L5.76 9.324l-3.77 1.192a2.86 2.86 0 0 0-1.856 3.59l2.059 6.444-2.045 6.44a2.86 2.86 0 0 0 1.856 3.59l3.769 1.191 2.294 7.217a2.85 2.85 0 0 0 3.575 1.861l.015-.004 11.32-3.6 11.334 3.605a2.86 2.86 0 0 0 3.59-1.857l2.294-7.217 3.768-1.191a2.86 2.86 0 0 0 1.856-3.59l-2.058-6.445z" fill="#FFF" mask="url(#b)"/></g><path d="M33.408 45.446l24.813-7.763" fill="#000"/><path d="M33.407 46.782a1.337 1.337 0 0 1-.398-2.61l24.813-7.763a1.335 1.335 0 1 1 .798 2.549L33.806 46.72a1.338 1.338 0 0 1-.399.06m2.057 4.603l14.732-4.61m-14.732 5.946a1.337 1.337 0 0 1-.398-2.61l14.73-4.61a1.336 1.336 0 0 1 .799 2.55l-14.732 4.608a1.338 1.338 0 0 1-.4.062m1.492 6.437a1.336 1.336 0 0 1-.398-2.61l22.022-6.89a1.336 1.336 0 0 1 .798 2.55l-22.023 6.89a1.323 1.323 0 0 1-.399.06" fill="#FFF"/></g></svg>