<svg width="97" height="97" viewBox="0 0 97 97" xmlns="http://www.w3.org/2000/svg" xmlns:xlink="http://www.w3.org/1999/xlink"><title>Group 17</title><defs><path id="a" d="M0 44.066h44.87V.45H0z"/></defs><g transform="translate(1 1)" fill="none" fill-rule="evenodd"><circle stroke="#FFF" stroke-width="2" cx="47.5" cy="47.5" r="47.5"/><g transform="translate(27.123 26.342)"><mask id="b" fill="#fff"><use xlink:href="#a"/></mask><path d="M40.296 9.107L36.26 5.073l2.214-2.213 4.034 4.044-2.213 2.203zm-7.149 7.149l-1.958 1.958-4.788 4.789-4.035-4.035 6.08-6.081 1.725-1.723 4.7-4.7 4.034 4.063-5.758 5.729zm-13.2 9.155l1.087-5.013 3.917 3.917-5.004 1.096zM44.575 6.21L39.15.735a.979.979 0 0 0-1.38 0L27.632 10.919H4.368A4.368 4.368 0 0 0 0 15.286v24.402a4.378 4.378 0 0 0 4.368 4.378h24.401a4.379 4.379 0 0 0 4.378-4.378v-19.27l-1.958 1.958v17.312a2.43 2.43 0 0 1-2.42 2.42H4.368a2.42 2.42 0 0 1-2.41-2.42V15.286a2.408 2.408 0 0 1 2.41-2.409h21.307l-6.178 6.199a.978.978 0 0 0-.265.49l-1.498 6.913a.978.978 0 0 0 .265.9.98.98 0 0 0 .695.295h.206l6.903-1.48a.979.979 0 0 0 .479-.264l4.896-4.896 1.959-1.958L44.575 7.589a.979.979 0 0 0 .294-.695.978.978 0 0 0-.294-.685z" fill="#FFF" mask="url(#b)"/></g><path d="M54.953 55.602H32.43a.98.98 0 0 0 0 1.958h22.523a.978.978 0 1 0 0-1.958m0 5.591H32.43a.979.979 0 0 0 0 1.959h22.523a.979.979 0 1 0 0-1.959" fill="#FFF"/></g></svg>