<svg width="97" height="97" viewBox="0 0 97 97" xmlns="http://www.w3.org/2000/svg"><title>Group 18</title><g transform="translate(1 1)" fill="none" fill-rule="evenodd"><circle stroke="#FFF" stroke-width="2" cx="47.5" cy="47.5" r="47.5"/><g fill="#FFF"><path d="M32.677 28.382v39.377h-4v1.846h39.994v-1.846h-4V28.382H32.678zm1.847 1.845h28.302V67.76h-9.845v-7.998h-9.229v7.998h-9.228V30.227zM45.599 67.76h5.537v-6.153H45.6v6.153z"/><path d="M39.51 41.987h5.538v-5.538h-5.537v5.538zm-1.845 1.845h9.229v-9.229h-9.23v9.23zm14.289-1.845h5.538v-5.538h-5.538v5.538zm-1.846 1.845h9.23v-9.229h-9.23v9.23zM39.51 54.43h5.538v-5.537h-5.537v5.537zm-1.845 1.846h9.229v-9.23h-9.23v9.23zm14.289-1.846h5.538v-5.537h-5.538v5.537zm-1.846 1.846h9.23v-9.23h-9.23v9.23z"/></g></g></svg>