<svg width="97" height="97" viewBox="0 0 97 97" xmlns="http://www.w3.org/2000/svg"><title>Group 19</title><g transform="translate(1 1)" fill="none" fill-rule="evenodd"><circle stroke="#FFF" stroke-width="2" cx="47.5" cy="47.5" r="47.5"/><path d="M70.119 70.118H24.626v-1.624h45.493v1.624zm-41.431-7.311h37.369v4.062h-37.37v-4.062zm2.437-1.625h3.25V45.747h-3.25v15.435zm4.874-18.684v.812a.813.813 0 0 1-.812.812h-4.875a.813.813 0 0 1-.812-.812v-.812h6.499zm-9.749-3.25h42.244v1.625H26.25v-1.625zM47.372 24.77l20.71 12.855h-41.42l20.71-12.855zm17.872 18.54a.813.813 0 0 1-.812.812h-4.874a.813.813 0 0 1-.813-.812v-.812h6.5v.812zM60.37 61.182h3.25V45.747h-3.25v15.435zm-14.623 0h3.25V45.747h-3.25v15.435zm4.062-17.06h-4.874a.813.813 0 0 1-.812-.812v-.812h6.499v.812a.813.813 0 0 1-.813.812zM36 61.182V45.597a2.432 2.432 0 0 0 1.625-2.287v-.812h4.874v.812c0 1.058.681 1.951 1.625 2.287v15.585H36zm14.623 0V45.597a2.432 2.432 0 0 0 1.624-2.287v-.812h4.875v.812c0 1.058.681 1.951 1.624 2.287v15.585h-8.123zM70.93 66.87h-3.25v-4.874a.811.811 0 0 0-.812-.813h-1.625V45.597a2.432 2.432 0 0 0 1.625-2.287v-.812h2.437c.45 0 .813-.363.813-.813v-2.437h.812a.813.813 0 0 0 .428-1.503L47.8 23.122a.814.814 0 0 0-.857 0L23.384 37.745a.813.813 0 0 0 .43 1.503h.812v2.437c0 .45.363.813.812.813h2.437v.812c0 1.058.682 1.951 1.625 2.287v15.585h-1.625a.811.811 0 0 0-.812.813v4.874h-3.25a.811.811 0 0 0-.812.812v3.25c0 .449.363.812.812.812h47.118a.81.81 0 0 0 .812-.812v-3.25a.811.811 0 0 0-.812-.812z" fill="#FFF"/></g></svg>